# MagicaVoxel @ Ephtracy

# group
o 

# material
mtllib gun.mtl
usemtl palette

# normals
vn -1 0 0
vn 1 0 0
vn 0 0 1
vn 0 0 -1
vn 0 -1 0
vn 0 1 0

# texcoords
vt 0.0878906 0.5
vt 0.955078 0.5
vt 0.986328 0.5

# verts
v -1 1.4 -0.6
v -1 1.4 -0.9
v -1 1.5 -0.6
v -1 1.5 -0.7
v -1 1.6 -0.7
v -1 1.6 -0.9
v -0.9 1.3 -0.6
v -0.9 1.3 -0.7
v -0.9 1.3 -0.8
v -0.9 1.4 -0.4
v -0.9 1.4 -0.6
v -0.9 1.4 -0.7
v -0.9 1.4 -0.8
v -0.9 1.5 -0.1
v -0.9 1.5 -0.2
v -0.9 1.5 -0.4
v -0.9 1.5 -0.6
v -0.9 1.5 -0.7
v -0.9 1.6 -0.1
v -0.9 1.6 -0.2
v -0.9 1.6 -0.6
v -0.9 1.6 -0.7
v -0.8 1.3 -0.6
v -0.8 1.3 -0.7
v -0.8 1.3 -0.8
v -0.8 1.4 -0.4
v -0.8 1.4 -0.6
v -0.8 1.4 -0.8
v -0.8 1.5 -0.1
v -0.8 1.5 -0.2
v -0.8 1.5 -0.4
v -0.8 1.5 -0.6
v -0.8 1.5 -0.7
v -0.8 1.6 -0.1
v -0.8 1.6 -0.2
v -0.8 1.6 -0.6
v -0.8 1.6 -0.8
v -0.6 1.4 -0.8
v -0.6 1.4 -0.9
v -0.6 1.6 -0.8
v -0.6 1.6 -0.9
v -0.9 1.5 -0.1
v -0.9 1.6 -0.1
v -0.8 1.5 -0.1
v -0.8 1.6 -0.1
v -0.9 1.4 -0.4
v -0.9 1.5 -0.4
v -0.8 1.4 -0.4
v -0.8 1.5 -0.4
v -1 1.4 -0.6
v -1 1.5 -0.6
v -0.9 1.3 -0.6
v -0.9 1.4 -0.6
v -0.9 1.5 -0.6
v -0.8 1.3 -0.6
v -0.8 1.4 -0.6
v -1 1.5 -0.7
v -1 1.6 -0.7
v -0.9 1.5 -0.7
v -0.9 1.6 -0.7
v -0.8 1.4 -0.8
v -0.8 1.6 -0.8
v -0.6 1.4 -0.8
v -0.6 1.6 -0.8
v -0.9 1.3 -0.8
v -0.9 1.4 -0.8
v -0.8 1.3 -0.8
v -0.8 1.4 -0.8
v -1 1.4 -0.9
v -1 1.6 -0.9
v -0.6 1.4 -0.9
v -0.6 1.6 -0.9
v -0.9 1.3 -0.6
v -0.8 1.3 -0.6
v -0.9 1.3 -0.7
v -0.8 1.3 -0.7
v -0.9 1.3 -0.8
v -0.8 1.3 -0.8
v -0.9 1.4 -0.4
v -0.8 1.4 -0.4
v -1 1.4 -0.6
v -0.9 1.4 -0.6
v -0.8 1.4 -0.6
v -0.9 1.4 -0.7
v -0.9 1.4 -0.8
v -0.8 1.4 -0.8
v -0.6 1.4 -0.8
v -1 1.4 -0.9
v -0.6 1.4 -0.9
v -0.9 1.5 -0.1
v -0.8 1.5 -0.1
v -0.9 1.5 -0.2
v -0.8 1.5 -0.2
v -0.9 1.5 -0.4
v -0.8 1.5 -0.4
v -1 1.5 -0.6
v -0.9 1.5 -0.6
v -1 1.5 -0.7
v -0.9 1.5 -0.7
v -0.9 1.6 -0.1
v -0.8 1.6 -0.1
v -0.9 1.6 -0.2
v -0.8 1.6 -0.2
v -0.9 1.6 -0.6
v -0.8 1.6 -0.6
v -1 1.6 -0.7
v -0.9 1.6 -0.7
v -0.9 1.6 -0.8
v -0.8 1.6 -0.8
v -0.6 1.6 -0.8
v -1 1.6 -0.9
v -0.6 1.6 -0.9

# faces
f 3/3/1 2/3/1 1/3/1
f 4/3/1 2/3/1 3/3/1
f 5/3/1 2/3/1 4/3/1
f 6/3/1 2/3/1 5/3/1
f 11/2/1 8/2/1 7/2/1
f 12/1/1 9/1/1 8/1/1
f 12/2/1 8/2/1 11/2/1
f 13/1/1 9/1/1 12/1/1
f 16/2/1 11/2/1 10/2/1
f 17/2/1 11/2/1 16/2/1
f 19/1/1 15/1/1 14/1/1
f 20/2/1 16/2/1 15/2/1
f 20/1/1 15/1/1 19/1/1
f 20/2/1 17/2/1 16/2/1
f 21/1/1 18/1/1 17/1/1
f 21/2/1 17/2/1 20/2/1
f 22/1/1 18/1/1 21/1/1
f 23/2/2 24/2/2 27/2/2
f 24/1/2 25/1/2 28/1/2
f 26/2/2 27/2/2 31/2/2
f 27/2/2 24/2/2 32/2/2
f 31/2/2 27/2/2 32/2/2
f 24/1/2 28/1/2 33/1/2
f 32/2/2 24/2/2 33/2/2
f 29/1/2 30/1/2 34/1/2
f 30/2/2 31/2/2 35/2/2
f 34/1/2 30/1/2 35/1/2
f 31/2/2 32/2/2 35/2/2
f 32/1/2 33/1/2 36/1/2
f 35/2/2 32/2/2 36/2/2
f 33/1/2 28/1/2 37/1/2
f 36/1/2 33/1/2 37/1/2
f 38/3/2 39/3/2 40/3/2
f 40/3/2 39/3/2 41/3/2
f 44/1/3 43/1/3 42/1/3
f 45/1/3 43/1/3 44/1/3
f 48/2/3 47/2/3 46/2/3
f 49/2/3 47/2/3 48/2/3
f 53/3/3 51/3/3 50/3/3
f 54/3/3 51/3/3 53/3/3
f 55/2/3 53/2/3 52/2/3
f 56/2/3 53/2/3 55/2/3
f 59/3/3 58/3/3 57/3/3
f 60/3/3 58/3/3 59/3/3
f 63/3/3 62/3/3 61/3/3
f 64/3/3 62/3/3 63/3/3
f 65/1/4 66/1/4 67/1/4
f 67/1/4 66/1/4 68/1/4
f 69/3/4 70/3/4 71/3/4
f 71/3/4 70/3/4 72/3/4
f 75/2/5 74/2/5 73/2/5
f 76/2/5 74/2/5 75/2/5
f 77/1/5 76/1/5 75/1/5
f 78/1/5 76/1/5 77/1/5
f 82/2/5 80/2/5 79/2/5
f 83/2/5 80/2/5 82/2/5
f 84/3/5 82/3/5 81/3/5
f 85/3/5 84/3/5 81/3/5
f 88/3/5 86/3/5 85/3/5
f 88/3/5 87/3/5 86/3/5
f 88/3/5 85/3/5 81/3/5
f 89/3/5 87/3/5 88/3/5
f 92/1/5 91/1/5 90/1/5
f 93/1/5 91/1/5 92/1/5
f 94/2/5 93/2/5 92/2/5
f 95/2/5 93/2/5 94/2/5
f 96/3/6 97/3/6 98/3/6
f 98/3/6 97/3/6 99/3/6
f 100/1/6 101/1/6 102/1/6
f 102/1/6 101/1/6 103/1/6
f 102/2/6 103/2/6 104/2/6
f 104/2/6 103/2/6 105/2/6
f 104/1/6 105/1/6 107/1/6
f 107/1/6 105/1/6 108/1/6
f 106/3/6 107/3/6 108/3/6
f 108/1/6 105/1/6 109/1/6
f 108/3/6 109/3/6 111/3/6
f 109/3/6 110/3/6 111/3/6
f 106/3/6 108/3/6 111/3/6
f 111/3/6 110/3/6 112/3/6
