# MagicaVoxel @ Ephtracy

# group
o 

# material
mtllib backstone.mtl
usemtl palette

# normals
vn -1 0 0
vn 1 0 0
vn 0 0 1
vn 0 0 -1
vn 0 -1 0
vn 0 1 0

# texcoords
vt 0.841797 0.5
vt 0.962891 0.5
vt 0.986328 0.5

# verts
v -0.7 1 2.23517e-008
v -0.7 1 -0.5
v -0.7 1.1 -0.4
v -0.7 1.1 -0.5
v -0.7 1.4 -0.4
v -0.7 1.4 -0.5
v -0.7 1.7 2.23517e-008
v -0.7 1.7 -0.1
v -0.7 2.6 2.23517e-008
v -0.7 2.6 -0.1
v -0.7 2.6 -0.5
v -0.5 2.6 2.23517e-008
v -0.5 2.6 -0.1
v -0.5 2.6 -0.5
v -0.5 2.7 2.23517e-008
v -0.5 2.7 -0.1
v -0.5 2.7 -0.5
v -0.4 2.7 2.23517e-008
v -0.4 2.7 -0.1
v -0.4 2.7 -0.5
v -0.4 2.8 2.23517e-008
v -0.4 2.8 -0.5
v -0.3 2.8 2.23517e-008
v -0.3 2.8 -0.5
v -0.3 2.9 2.23517e-008
v -0.3 2.9 -0.5
v -0.2 2.9 -0.2
v -0.2 2.9 -0.3
v -0.2 3.1 -0.2
v -0.2 3.1 -0.3
v -0.1 3.1 -0.2
v -0.1 3.1 -0.3
v -0.1 3.3 -0.2
v -0.1 3.3 -0.3
v 0.1 3.1 -0.2
v 0.1 3.1 -0.3
v 0.1 3.3 -0.2
v 0.1 3.3 -0.3
v 0.2 2.9 -0.2
v 0.2 2.9 -0.3
v 0.2 3.1 -0.2
v 0.2 3.1 -0.3
v 0.3 2.8 2.23517e-008
v 0.3 2.8 -0.5
v 0.3 2.9 2.23517e-008
v 0.3 2.9 -0.5
v 0.4 2.7 2.23517e-008
v 0.4 2.7 -0.5
v 0.4 2.8 2.23517e-008
v 0.4 2.8 -0.5
v 0.5 2.6 2.23517e-008
v 0.5 2.6 -0.5
v 0.5 2.7 2.23517e-008
v 0.5 2.7 -0.5
v 0.7 1 2.23517e-008
v 0.7 1 -0.5
v 0.7 2.6 2.23517e-008
v 0.7 2.6 -0.5
v -0.7 1 2.23517e-008
v -0.7 1.7 2.23517e-008
v -0.7 2.6 2.23517e-008
v -0.6 1.7 2.23517e-008
v -0.6 2.3 2.23517e-008
v -0.5 2.1 2.23517e-008
v -0.5 2.3 2.23517e-008
v -0.5 2.6 2.23517e-008
v -0.5 2.7 2.23517e-008
v -0.4 1.7 2.23517e-008
v -0.4 1.8 2.23517e-008
v -0.4 2.1 2.23517e-008
v -0.4 2.5 2.23517e-008
v -0.4 2.7 2.23517e-008
v -0.4 2.8 2.23517e-008
v -0.3 1.3 2.23517e-008
v -0.3 1.4 2.23517e-008
v -0.3 1.7 2.23517e-008
v -0.3 1.8 2.23517e-008
v -0.3 2 2.23517e-008
v -0.3 2.2 2.23517e-008
v -0.3 2.3 2.23517e-008
v -0.3 2.5 2.23517e-008
v -0.3 2.8 2.23517e-008
v -0.3 2.9 2.23517e-008
v -0.2 1.2 2.23517e-008
v -0.2 1.3 2.23517e-008
v -0.2 1.4 2.23517e-008
v -0.2 1.5 2.23517e-008
v -0.2 2 2.23517e-008
v -0.2 2.2 2.23517e-008
v -0.2 2.3 2.23517e-008
v -0.2 2.7 2.23517e-008
v -0.1 1.1 2.23517e-008
v -0.1 1.2 2.23517e-008
v -0.1 1.3 2.23517e-008
v -0.1 1.4 2.23517e-008
v -0.1 1.5 2.23517e-008
v -0.1 1.6 2.23517e-008
v -0.1 2.3 2.23517e-008
v -0.1 2.4 2.23517e-008
v 5.96046e-008 1.1 2.23517e-008
v 5.96046e-008 1.2 2.23517e-008
v 5.96046e-008 1.3 2.23517e-008
v 5.96046e-008 1.4 2.23517e-008
v 5.96046e-008 1.5 2.23517e-008
v 5.96046e-008 1.6 2.23517e-008
v 5.96046e-008 2.3 2.23517e-008
v 5.96046e-008 2.4 2.23517e-008
v 0.1 1.2 2.23517e-008
v 0.1 1.3 2.23517e-008
v 0.1 1.4 2.23517e-008
v 0.1 1.5 2.23517e-008
v 0.2 1.3 2.23517e-008
v 0.2 1.4 2.23517e-008
v 0.3 2.8 2.23517e-008
v 0.3 2.9 2.23517e-008
v 0.4 2.7 2.23517e-008
v 0.4 2.8 2.23517e-008
v 0.5 2.6 2.23517e-008
v 0.5 2.7 2.23517e-008
v 0.7 1 2.23517e-008
v 0.7 2.6 2.23517e-008
v -0.2 2.9 -0.2
v -0.2 3.1 -0.2
v -0.1 3.1 -0.2
v -0.1 3.3 -0.2
v 0.1 3.1 -0.2
v 0.1 3.3 -0.2
v 0.2 2.9 -0.2
v 0.2 3.1 -0.2
v -0.2 2.9 -0.3
v -0.2 3.1 -0.3
v -0.1 3.1 -0.3
v -0.1 3.3 -0.3
v 0.1 3.1 -0.3
v 0.1 3.3 -0.3
v 0.2 2.9 -0.3
v 0.2 3.1 -0.3
v -0.7 1 -0.5
v -0.7 1.1 -0.5
v -0.7 1.4 -0.5
v -0.7 2.6 -0.5
v -0.6 1.2 -0.5
v -0.6 1.4 -0.5
v -0.5 1.2 -0.5
v -0.5 1.4 -0.5
v -0.5 1.6 -0.5
v -0.5 1.7 -0.5
v -0.5 2 -0.5
v -0.5 2.1 -0.5
v -0.5 2.6 -0.5
v -0.5 2.7 -0.5
v -0.4 1.1 -0.5
v -0.4 1.4 -0.5
v -0.4 1.8 -0.5
v -0.4 1.9 -0.5
v -0.4 2.7 -0.5
v -0.4 2.8 -0.5
v -0.3 1.1 -0.5
v -0.3 1.4 -0.5
v -0.3 1.7 -0.5
v -0.3 1.8 -0.5
v -0.3 1.9 -0.5
v -0.3 2 -0.5
v -0.3 2.8 -0.5
v -0.3 2.9 -0.5
v -0.2 1.2 -0.5
v -0.2 1.3 -0.5
v -0.2 1.6 -0.5
v -0.2 2.1 -0.5
v -0.1 1.2 -0.5
v -0.1 1.3 -0.5
v -0.1 1.6 -0.5
v -0.1 1.7 -0.5
v -0.1 2 -0.5
v -0.1 2.1 -0.5
v 5.96046e-008 1.1 -0.5
v 5.96046e-008 1.4 -0.5
v 5.96046e-008 1.8 -0.5
v 5.96046e-008 1.9 -0.5
v 0.1 1.4 -0.5
v 0.1 1.5 -0.5
v 0.1 1.7 -0.5
v 0.1 1.8 -0.5
v 0.1 1.9 -0.5
v 0.1 2 -0.5
v 0.2 1.3 -0.5
v 0.2 1.4 -0.5
v 0.2 1.5 -0.5
v 0.2 1.6 -0.5
v 0.2 2.1 -0.5
v 0.3 1 -0.5
v 0.3 1.3 -0.5
v 0.3 1.4 -0.5
v 0.3 1.6 -0.5
v 0.3 1.9 -0.5
v 0.3 2 -0.5
v 0.3 2.1 -0.5
v 0.3 2.2 -0.5
v 0.3 2.3 -0.5
v 0.3 2.4 -0.5
v 0.3 2.5 -0.5
v 0.3 2.8 -0.5
v 0.3 2.9 -0.5
v 0.4 1 -0.5
v 0.4 1.3 -0.5
v 0.4 1.4 -0.5
v 0.4 1.7 -0.5
v 0.4 1.8 -0.5
v 0.4 2.3 -0.5
v 0.4 2.4 -0.5
v 0.4 2.7 -0.5
v 0.4 2.8 -0.5
v 0.5 1.3 -0.5
v 0.5 1.4 -0.5
v 0.5 1.5 -0.5
v 0.5 1.9 -0.5
v 0.5 2 -0.5
v 0.5 2.3 -0.5
v 0.5 2.4 -0.5
v 0.5 2.6 -0.5
v 0.5 2.7 -0.5
v 0.6 1.4 -0.5
v 0.6 1.5 -0.5
v 0.6 1.6 -0.5
v 0.6 1.7 -0.5
v 0.6 1.8 -0.5
v 0.6 2.1 -0.5
v 0.6 2.2 -0.5
v 0.6 2.3 -0.5
v 0.6 2.4 -0.5
v 0.6 2.5 -0.5
v 0.7 1 -0.5
v 0.7 2.6 -0.5
v -0.7 1 2.23517e-008
v 0.7 1 2.23517e-008
v 0.3 1 -0.4
v 0.4 1 -0.4
v -0.7 1 -0.5
v 0.3 1 -0.5
v 0.4 1 -0.5
v 0.7 1 -0.5
v -0.7 2.6 2.23517e-008
v -0.5 2.6 2.23517e-008
v 0.5 2.6 2.23517e-008
v 0.7 2.6 2.23517e-008
v -0.7 2.6 -0.1
v -0.5 2.6 -0.1
v -0.7 2.6 -0.5
v -0.5 2.6 -0.5
v 0.5 2.6 -0.5
v 0.7 2.6 -0.5
v -0.5 2.7 2.23517e-008
v -0.4 2.7 2.23517e-008
v 0.4 2.7 2.23517e-008
v 0.5 2.7 2.23517e-008
v -0.5 2.7 -0.1
v -0.4 2.7 -0.1
v -0.5 2.7 -0.5
v -0.4 2.7 -0.5
v 0.4 2.7 -0.5
v 0.5 2.7 -0.5
v -0.4 2.8 2.23517e-008
v -0.3 2.8 2.23517e-008
v 0.3 2.8 2.23517e-008
v 0.4 2.8 2.23517e-008
v -0.4 2.8 -0.5
v -0.3 2.8 -0.5
v 0.3 2.8 -0.5
v 0.4 2.8 -0.5
v -0.3 2.9 2.23517e-008
v 0.3 2.9 2.23517e-008
v -0.2 2.9 -0.2
v 0.2 2.9 -0.2
v -0.2 2.9 -0.3
v 0.2 2.9 -0.3
v -0.3 2.9 -0.5
v 0.3 2.9 -0.5
v -0.2 3.1 -0.2
v -0.1 3.1 -0.2
v 0.1 3.1 -0.2
v 0.2 3.1 -0.2
v -0.2 3.1 -0.3
v -0.1 3.1 -0.3
v 0.1 3.1 -0.3
v 0.2 3.1 -0.3
v -0.1 3.3 -0.2
v 0.1 3.3 -0.2
v -0.1 3.3 -0.3
v 0.1 3.3 -0.3

# faces
f 3/3/1 2/3/1 1/3/1
f 4/3/1 2/3/1 3/3/1
f 5/3/1 3/3/1 1/3/1
f 5/1/1 4/1/1 3/1/1
f 6/1/1 4/1/1 5/1/1
f 7/3/1 5/3/1 1/3/1
f 7/3/1 6/3/1 5/3/1
f 8/3/1 6/3/1 7/3/1
f 9/1/1 8/1/1 7/1/1
f 10/3/1 6/3/1 8/3/1
f 10/1/1 8/1/1 9/1/1
f 11/3/1 6/3/1 10/3/1
f 15/1/1 13/1/1 12/1/1
f 16/3/1 14/3/1 13/3/1
f 16/1/1 13/1/1 15/1/1
f 17/3/1 14/3/1 16/3/1
f 21/3/1 19/3/1 18/3/1
f 21/3/1 20/3/1 19/3/1
f 22/3/1 20/3/1 21/3/1
f 25/3/1 24/3/1 23/3/1
f 26/3/1 24/3/1 25/3/1
f 29/3/1 28/3/1 27/3/1
f 30/3/1 28/3/1 29/3/1
f 33/3/1 32/3/1 31/3/1
f 34/3/1 32/3/1 33/3/1
f 35/3/2 36/3/2 37/3/2
f 37/3/2 36/3/2 38/3/2
f 39/3/2 40/3/2 41/3/2
f 41/3/2 40/3/2 42/3/2
f 43/3/2 44/3/2 45/3/2
f 45/3/2 44/3/2 46/3/2
f 47/3/2 48/3/2 49/3/2
f 49/3/2 48/3/2 50/3/2
f 51/3/2 52/3/2 53/3/2
f 53/3/2 52/3/2 54/3/2
f 55/3/2 56/3/2 57/3/2
f 57/3/2 56/3/2 58/3/2
f 62/3/3 60/3/3 59/3/3
f 62/1/3 61/1/3 60/1/3
f 63/1/3 61/1/3 62/1/3
f 64/3/3 63/3/3 62/3/3
f 65/1/3 61/1/3 63/1/3
f 65/3/3 63/3/3 64/3/3
f 66/1/3 61/1/3 65/1/3
f 68/3/3 62/3/3 59/3/3
f 68/3/3 64/3/3 62/3/3
f 69/3/3 64/3/3 68/3/3
f 70/1/3 67/1/3 66/1/3
f 70/3/3 64/3/3 69/3/3
f 70/1/3 66/1/3 65/1/3
f 70/1/3 65/1/3 64/1/3
f 71/1/3 67/1/3 70/1/3
f 72/1/3 67/1/3 71/1/3
f 74/3/3 68/3/3 59/3/3
f 75/3/3 68/3/3 74/3/3
f 76/1/3 69/1/3 68/1/3
f 76/3/3 68/3/3 75/3/3
f 77/3/3 70/3/3 69/3/3
f 77/1/3 69/1/3 76/1/3
f 77/3/3 71/3/3 70/3/3
f 78/3/3 71/3/3 77/3/3
f 79/3/3 71/3/3 78/3/3
f 80/3/3 71/3/3 79/3/3
f 81/1/3 72/1/3 71/1/3
f 81/3/3 71/3/3 80/3/3
f 82/3/3 73/3/3 72/3/3
f 84/3/3 74/3/3 59/3/3
f 85/2/3 75/2/3 74/2/3
f 85/3/3 74/3/3 84/3/3
f 86/3/3 76/3/3 75/3/3
f 86/2/3 75/2/3 85/2/3
f 86/3/3 77/3/3 76/3/3
f 86/3/3 78/3/3 77/3/3
f 87/3/3 78/3/3 86/3/3
f 88/1/3 79/1/3 78/1/3
f 88/3/3 78/3/3 87/3/3
f 89/3/3 80/3/3 79/3/3
f 89/1/3 79/1/3 88/1/3
f 90/1/3 81/1/3 80/1/3
f 90/3/3 80/3/3 89/3/3
f 91/1/3 72/1/3 81/1/3
f 91/1/3 81/1/3 90/1/3
f 91/3/3 83/3/3 82/3/3
f 91/3/3 82/3/3 72/3/3
f 92/3/3 84/3/3 59/3/3
f 93/2/3 85/2/3 84/2/3
f 93/3/3 84/3/3 92/3/3
f 94/3/3 86/3/3 85/3/3
f 94/2/3 85/2/3 93/2/3
f 95/2/3 87/2/3 86/2/3
f 95/3/3 86/3/3 94/3/3
f 96/3/3 90/3/3 89/3/3
f 96/2/3 87/2/3 95/2/3
f 96/3/3 88/3/3 87/3/3
f 96/3/3 91/3/3 90/3/3
f 96/3/3 89/3/3 88/3/3
f 97/3/3 91/3/3 96/3/3
f 98/3/3 91/3/3 97/3/3
f 99/3/3 91/3/3 98/3/3
f 100/3/3 92/3/3 59/3/3
f 100/2/3 93/2/3 92/2/3
f 101/3/3 95/3/3 94/3/3
f 101/2/3 93/2/3 100/2/3
f 101/3/3 94/3/3 93/3/3
f 101/3/3 96/3/3 95/3/3
f 102/3/3 96/3/3 101/3/3
f 103/3/3 96/3/3 102/3/3
f 104/2/3 97/2/3 96/2/3
f 104/3/3 96/3/3 103/3/3
f 105/3/3 98/3/3 97/3/3
f 105/2/3 97/2/3 104/2/3
f 106/1/3 99/1/3 98/1/3
f 106/3/3 98/3/3 105/3/3
f 107/3/3 91/3/3 99/3/3
f 107/1/3 99/1/3 106/1/3
f 108/3/3 101/3/3 100/3/3
f 108/2/3 102/2/3 101/2/3
f 109/3/3 103/3/3 102/3/3
f 109/2/3 102/2/3 108/2/3
f 110/2/3 104/2/3 103/2/3
f 110/3/3 103/3/3 109/3/3
f 111/3/3 106/3/3 105/3/3
f 111/2/3 104/2/3 110/2/3
f 111/3/3 105/3/3 104/3/3
f 111/3/3 107/3/3 106/3/3
f 112/2/3 110/2/3 109/2/3
f 112/3/3 109/3/3 108/3/3
f 113/3/3 111/3/3 110/3/3
f 113/2/3 110/2/3 112/2/3
f 114/3/3 83/3/3 91/3/3
f 114/3/3 111/3/3 113/3/3
f 114/3/3 113/3/3 112/3/3
f 114/3/3 107/3/3 111/3/3
f 114/3/3 91/3/3 107/3/3
f 115/3/3 83/3/3 114/3/3
f 116/3/3 114/3/3 112/3/3
f 117/3/3 114/3/3 116/3/3
f 118/3/3 116/3/3 112/3/3
f 119/3/3 116/3/3 118/3/3
f 120/3/3 108/3/3 100/3/3
f 120/3/3 100/3/3 59/3/3
f 120/3/3 118/3/3 112/3/3
f 120/3/3 112/3/3 108/3/3
f 121/3/3 118/3/3 120/3/3
f 124/3/3 123/3/3 122/3/3
f 126/3/3 124/3/3 122/3/3
f 126/3/3 125/3/3 124/3/3
f 127/3/3 125/3/3 126/3/3
f 128/3/3 126/3/3 122/3/3
f 129/3/3 126/3/3 128/3/3
f 130/3/4 131/3/4 132/3/4
f 130/3/4 132/3/4 134/3/4
f 132/3/4 133/3/4 134/3/4
f 134/3/4 133/3/4 135/3/4
f 130/3/4 134/3/4 136/3/4
f 136/3/4 134/3/4 137/3/4
f 139/1/4 140/1/4 142/1/4
f 140/3/4 141/3/4 143/3/4
f 142/1/4 140/1/4 143/1/4
f 139/1/4 142/1/4 144/1/4
f 142/3/4 143/3/4 144/3/4
f 143/3/4 141/3/4 145/3/4
f 144/3/4 143/3/4 145/3/4
f 145/3/4 141/3/4 146/3/4
f 146/3/4 141/3/4 147/3/4
f 147/3/4 141/3/4 148/3/4
f 148/3/4 141/3/4 149/3/4
f 149/3/4 141/3/4 150/3/4
f 138/3/4 139/3/4 152/3/4
f 139/1/4 144/1/4 152/1/4
f 144/1/4 145/1/4 152/1/4
f 145/3/4 146/3/4 153/3/4
f 152/1/4 145/1/4 153/1/4
f 147/3/4 148/3/4 154/3/4
f 154/3/4 148/3/4 155/3/4
f 150/3/4 151/3/4 156/3/4
f 149/3/4 150/3/4 156/3/4
f 138/3/4 152/3/4 158/3/4
f 152/3/4 153/3/4 158/3/4
f 153/3/4 146/3/4 159/3/4
f 158/3/4 153/3/4 159/3/4
f 146/1/4 147/1/4 160/1/4
f 147/3/4 154/3/4 160/3/4
f 154/1/4 155/1/4 161/1/4
f 160/3/4 154/3/4 161/3/4
f 155/3/4 148/3/4 162/3/4
f 161/1/4 155/1/4 162/1/4
f 148/1/4 149/1/4 163/1/4
f 162/3/4 148/3/4 163/3/4
f 156/3/4 157/3/4 164/3/4
f 158/1/4 159/1/4 166/1/4
f 166/1/4 159/1/4 167/1/4
f 160/1/4 161/1/4 168/1/4
f 146/1/4 160/1/4 168/1/4
f 161/1/4 162/1/4 168/1/4
f 159/3/4 146/3/4 168/3/4
f 162/1/4 163/1/4 168/1/4
f 163/1/4 149/1/4 169/1/4
f 168/1/4 163/1/4 169/1/4
f 156/3/4 164/3/4 169/3/4
f 164/3/4 165/3/4 169/3/4
f 149/3/4 156/3/4 169/3/4
f 166/3/4 167/3/4 170/3/4
f 158/1/4 166/1/4 170/1/4
f 167/1/4 159/1/4 171/1/4
f 170/3/4 167/3/4 171/3/4
f 168/3/4 169/3/4 172/3/4
f 159/3/4 168/3/4 172/3/4
f 172/3/4 169/3/4 173/3/4
f 173/3/4 169/3/4 174/3/4
f 169/3/4 165/3/4 175/3/4
f 174/3/4 169/3/4 175/3/4
f 158/1/4 170/1/4 176/1/4
f 170/1/4 171/1/4 176/1/4
f 138/3/4 158/3/4 176/3/4
f 171/1/4 159/1/4 177/1/4
f 176/1/4 171/1/4 177/1/4
f 159/3/4 172/3/4 177/3/4
f 173/3/4 174/3/4 178/3/4
f 178/3/4 174/3/4 179/3/4
f 177/3/4 172/3/4 180/3/4
f 176/3/4 177/3/4 180/3/4
f 180/3/4 172/3/4 181/3/4
f 172/1/4 173/1/4 182/1/4
f 173/3/4 178/3/4 182/3/4
f 178/1/4 179/1/4 183/1/4
f 182/3/4 178/3/4 183/3/4
f 179/3/4 174/3/4 184/3/4
f 183/1/4 179/1/4 184/1/4
f 174/1/4 175/1/4 185/1/4
f 184/3/4 174/3/4 185/3/4
f 176/3/4 180/3/4 186/3/4
f 180/1/4 181/1/4 187/1/4
f 186/3/4 180/3/4 187/3/4
f 181/3/4 172/3/4 188/3/4
f 187/1/4 181/1/4 188/1/4
f 182/1/4 183/1/4 189/1/4
f 188/3/4 172/3/4 189/3/4
f 183/1/4 184/1/4 189/1/4
f 184/1/4 185/1/4 189/1/4
f 172/1/4 182/1/4 189/1/4
f 175/3/4 165/3/4 190/3/4
f 189/1/4 185/1/4 190/1/4
f 185/1/4 175/1/4 190/1/4
f 138/3/4 176/3/4 191/3/4
f 176/3/4 186/3/4 191/3/4
f 186/1/4 187/1/4 192/1/4
f 191/3/4 186/3/4 192/3/4
f 188/3/4 189/3/4 193/3/4
f 192/1/4 187/1/4 193/1/4
f 187/3/4 188/3/4 193/3/4
f 189/3/4 190/3/4 193/3/4
f 193/3/4 190/3/4 194/3/4
f 194/3/4 190/3/4 195/3/4
f 195/3/4 190/3/4 196/3/4
f 190/3/4 165/3/4 197/3/4
f 196/3/4 190/3/4 197/3/4
f 197/3/4 165/3/4 198/3/4
f 198/3/4 165/3/4 199/3/4
f 199/3/4 165/3/4 200/3/4
f 200/3/4 165/3/4 201/3/4
f 201/3/4 165/3/4 202/3/4
f 202/3/4 165/3/4 203/3/4
f 191/1/4 192/1/4 204/1/4
f 192/3/4 193/3/4 205/3/4
f 204/1/4 192/1/4 205/1/4
f 193/3/4 194/3/4 205/3/4
f 205/3/4 194/3/4 206/3/4
f 194/1/4 195/1/4 207/1/4
f 207/1/4 195/1/4 208/1/4
f 198/1/4 199/1/4 209/1/4
f 199/3/4 200/3/4 209/3/4
f 200/1/4 201/1/4 210/1/4
f 209/3/4 200/3/4 210/3/4
f 201/3/4 202/3/4 211/3/4
f 211/3/4 202/3/4 212/3/4
f 204/3/4 205/3/4 213/3/4
f 205/1/4 206/1/4 213/1/4
f 206/3/4 194/3/4 214/3/4
f 213/1/4 206/1/4 214/1/4
f 214/3/4 194/3/4 215/3/4
f 195/3/4 196/3/4 216/3/4
f 208/1/4 195/1/4 216/1/4
f 196/1/4 197/1/4 217/1/4
f 216/3/4 196/3/4 217/3/4
f 198/1/4 209/1/4 218/1/4
f 209/1/4 210/1/4 218/1/4
f 210/1/4 201/1/4 219/1/4
f 218/1/4 210/1/4 219/1/4
f 201/3/4 211/3/4 220/3/4
f 220/3/4 211/3/4 221/3/4
f 214/1/4 215/1/4 222/1/4
f 213/3/4 214/3/4 222/3/4
f 215/3/4 194/3/4 223/3/4
f 222/1/4 215/1/4 223/1/4
f 194/1/4 207/1/4 224/1/4
f 223/3/4 194/3/4 224/3/4
f 207/3/4 208/3/4 225/3/4
f 224/1/4 207/1/4 225/1/4
f 208/1/4 216/1/4 226/1/4
f 225/3/4 208/3/4 226/3/4
f 216/1/4 217/1/4 226/1/4
f 197/3/4 198/3/4 227/3/4
f 226/1/4 217/1/4 227/1/4
f 217/1/4 197/1/4 227/1/4
f 198/1/4 218/1/4 228/1/4
f 227/3/4 198/3/4 228/3/4
f 218/3/4 219/3/4 229/3/4
f 228/1/4 218/1/4 229/1/4
f 219/1/4 201/1/4 230/1/4
f 229/3/4 219/3/4 230/3/4
f 201/3/4 220/3/4 231/3/4
f 230/1/4 201/1/4 231/1/4
f 213/3/4 222/3/4 232/3/4
f 226/3/4 227/3/4 232/3/4
f 230/3/4 231/3/4 232/3/4
f 227/3/4 228/3/4 232/3/4
f 222/3/4 223/3/4 232/3/4
f 228/3/4 229/3/4 232/3/4
f 204/3/4 213/3/4 232/3/4
f 229/3/4 230/3/4 232/3/4
f 223/3/4 224/3/4 232/3/4
f 224/3/4 225/3/4 232/3/4
f 225/3/4 226/3/4 232/3/4
f 231/3/4 220/3/4 233/3/4
f 232/3/4 231/3/4 233/3/4
f 236/3/5 235/3/5 234/3/5
f 237/3/5 235/3/5 236/3/5
f 238/3/5 236/3/5 234/3/5
f 239/1/5 237/1/5 236/1/5
f 239/3/5 236/3/5 238/3/5
f 240/3/5 235/3/5 237/3/5
f 240/1/5 237/1/5 239/1/5
f 241/3/5 235/3/5 240/3/5
f 242/1/6 243/1/6 246/1/6
f 246/1/6 243/1/6 247/1/6
f 246/3/6 247/3/6 248/3/6
f 248/3/6 247/3/6 249/3/6
f 244/3/6 245/3/6 250/3/6
f 250/3/6 245/3/6 251/3/6
f 252/1/6 253/1/6 256/1/6
f 256/1/6 253/1/6 257/1/6
f 256/3/6 257/3/6 258/3/6
f 258/3/6 257/3/6 259/3/6
f 254/3/6 255/3/6 260/3/6
f 260/3/6 255/3/6 261/3/6
f 262/3/6 263/3/6 266/3/6
f 266/3/6 263/3/6 267/3/6
f 264/3/6 265/3/6 268/3/6
f 268/3/6 265/3/6 269/3/6
f 270/3/6 271/3/6 272/3/6
f 272/3/6 271/3/6 273/3/6
f 270/3/6 272/3/6 274/3/6
f 273/3/6 271/3/6 275/3/6
f 270/3/6 274/3/6 276/3/6
f 274/3/6 275/3/6 276/3/6
f 275/3/6 271/3/6 277/3/6
f 276/3/6 275/3/6 277/3/6
f 278/3/6 279/3/6 282/3/6
f 282/3/6 279/3/6 283/3/6
f 280/3/6 281/3/6 284/3/6
f 284/3/6 281/3/6 285/3/6
f 286/3/6 287/3/6 288/3/6
f 288/3/6 287/3/6 289/3/6
